<svg viewBox="0 0 66 14" id="icon-product-stars" style="
    width: 125px;
    height: 100%;
    fill: #fff;
    border: none;
">
                <path d="M0,0v14h66V0H0z M12.9,5.9l-2.6,2.7c-0.1,0.1-0.1,0.2-0.1,0.3l0.6,3.8c0,0.3-0.2,0.4-0.4,0.3l-3.2-1.8c-0.1,0-0.2,0-0.3,0 L3.6,13c-0.2,0.1-0.5-0.1-0.4-0.3l0.6-3.8c0-0.1,0-0.2-0.1-0.3L1.1,5.9C0.9,5.7,1,5.4,1.3,5.3l3.6-0.6c0.1,0,0.2-0.1,0.2-0.2 l1.6-3.5c0.1-0.2,0.4-0.2,0.5,0l1.6,3.5c0,0.1,0.1,0.2,0.2,0.2l3.6,0.6C13,5.4,13.1,5.7,12.9,5.9z M25.9,5.9l-2.6,2.7 c-0.1,0.1-0.1,0.2-0.1,0.3l0.6,3.8c0,0.3-0.2,0.4-0.4,0.3l-3.2-1.8c-0.1,0-0.2,0-0.3,0L16.6,13c-0.2,0.1-0.5-0.1-0.4-0.3l0.6-3.8 c0-0.1,0-0.2-0.1-0.3l-2.6-2.7c-0.2-0.2-0.1-0.5,0.2-0.5l3.6-0.6c0.1,0,0.2-0.1,0.2-0.2l1.6-3.5c0.1-0.2,0.4-0.2,0.5,0l1.6,3.5 c0,0.1,0.1,0.2,0.2,0.2l3.6,0.6C26,5.4,26.1,5.7,25.9,5.9z M38.9,5.9l-2.6,2.7c-0.1,0.1-0.1,0.2-0.1,0.3l0.6,3.8 c0,0.3-0.2,0.4-0.4,0.3l-3.2-1.8c-0.1,0-0.2,0-0.3,0L29.6,13c-0.2,0.1-0.5-0.1-0.4-0.3l0.6-3.8c0-0.1,0-0.2-0.1-0.3l-2.6-2.7 c-0.2-0.2-0.1-0.5,0.2-0.5l3.6-0.6c0.1,0,0.2-0.1,0.2-0.2l1.6-3.5c0.1-0.2,0.4-0.2,0.5,0l1.6,3.5c0,0.1,0.1,0.2,0.2,0.2l3.6,0.6 C39,5.4,39.1,5.7,38.9,5.9z M51.9,5.9l-2.6,2.7c-0.1,0.1-0.1,0.2-0.1,0.3l0.6,3.8c0,0.3-0.2,0.4-0.4,0.3l-3.2-1.8 c-0.1,0-0.2,0-0.3,0L42.6,13c-0.2,0.1-0.5-0.1-0.4-0.3l0.6-3.8c0-0.1,0-0.2-0.1-0.3l-2.6-2.7c-0.2-0.2-0.1-0.5,0.2-0.5l3.6-0.6 c0.1,0,0.2-0.1,0.2-0.2l1.6-3.5c0.1-0.2,0.4-0.2,0.5,0l1.6,3.5c0,0.1,0.1,0.2,0.2,0.2l3.6,0.6C52,5.4,52.1,5.7,51.9,5.9z M64.9,5.9 l-2.6,2.7c-0.1,0.1-0.1,0.2-0.1,0.3l0.6,3.8c0,0.3-0.2,0.4-0.4,0.3l-3.2-1.8c-0.1,0-0.2,0-0.3,0L55.6,13c-0.2,0.1-0.5-0.1-0.4-0.3 l0.6-3.8c0-0.1,0-0.2-0.1-0.3l-2.6-2.7c-0.2-0.2-0.1-0.5,0.2-0.5l3.6-0.6c0.1,0,0.2-0.1,0.2-0.2l1.6-3.5c0.1-0.2,0.4-0.2,0.5,0 l1.6,3.5c0,0.1,0.1,0.2,0.2,0.2l3.6,0.6C65,5.4,65.1,5.7,64.9,5.9z"></path>
            </svg>